<svg width="89" height="89" viewBox="0 0 89 89" fill="none" xmlns="http://www.w3.org/2000/svg">
<path d="M71.9129 88.464C67.4995 88.464 63.3667 86.7541 60.2323 83.6188C56.625 80.0115 54.9074 75.0322 55.5182 69.9573C55.8696 67.0431 54.76 63.9844 52.5504 61.7748L48.1677 57.392C45.9974 55.2217 42.4667 55.2236 40.2982 57.392L35.9145 61.7748C33.705 63.9844 32.5954 67.0431 32.9468 69.9573C33.5585 75.0332 31.84 80.0124 28.2336 83.6188C24.9911 86.8604 20.6926 88.6037 16.0963 88.4572C11.5163 88.3356 7.3002 86.3855 4.22613 82.9668C-1.62905 76.4549 -1.27679 66.1825 5.01111 60.0669C8.56577 56.6109 13.4387 54.9527 18.3787 55.5022C21.4336 55.8497 24.4646 54.7718 26.6856 52.5527L31.0712 48.166C33.2406 45.9967 33.2406 42.4669 31.0712 40.2976L26.6884 35.9138C24.4779 33.7042 21.4268 32.5937 18.5059 32.946C13.4339 33.5568 8.45093 31.8393 4.84458 28.232C1.60298 24.9904 -0.115547 20.6813 0.00603667 16.0975C0.127621 11.5166 2.07774 7.30043 5.49645 4.22445C12.0074 -1.62978 22.2808 -1.27749 28.3964 5.01042C31.8525 8.56412 33.5172 13.4371 32.961 18.378C32.6164 21.4377 33.6925 24.4658 35.9116 26.6849L40.2973 31.0706C42.4657 33.2399 45.9964 33.2399 48.1667 31.0706L52.5495 26.6868C54.7591 24.4782 55.8686 21.4195 55.5173 18.5053C54.9065 13.4304 56.6241 8.45018 60.2314 4.84383C63.473 1.60223 67.7953 -0.108582 72.3667 0.00534357C76.9476 0.126928 81.1638 2.07708 84.2389 5.49675C90.094 12.0077 89.7418 22.2811 83.4539 28.3957C79.8992 31.8518 75.0253 33.5137 70.0854 32.9604C67.0314 32.6081 63.9985 33.6918 61.7784 35.91L57.3927 40.2966C55.2234 42.466 55.2234 45.9957 57.3927 48.1651L61.7784 52.5516C63.9976 54.7698 67.0238 55.8488 70.0854 55.5013C75.0253 54.9518 79.8983 56.6089 83.4539 60.0659C89.7408 66.1815 90.094 76.4539 84.2389 82.9659C81.1648 86.3846 76.9487 88.3347 72.3678 88.4563C72.2174 88.462 72.0651 88.464 71.9129 88.464ZM16.506 57.3126C12.7206 57.3126 9.08944 58.7716 6.34758 61.4398C0.786303 66.8469 0.474202 75.9302 5.64966 81.6858C8.37046 84.7111 12.0984 86.4363 16.149 86.5435C20.1881 86.6613 24.0136 85.1305 26.8809 82.2651C30.0689 79.0771 31.5872 74.6742 31.0463 70.1861C30.626 66.6947 31.9405 63.0433 34.5617 60.4221L38.9455 56.0393C41.8616 53.1232 46.6063 53.1232 49.5224 56.0393L53.9051 60.4221C56.5264 63.0433 57.8408 66.6947 57.4205 70.1861C56.8806 74.6742 58.3979 79.0771 61.5869 82.2651C64.4522 85.1315 68.2856 86.668 72.318 86.5435C76.3685 86.4363 80.0973 84.7111 82.8181 81.6858C87.9926 75.9293 87.6805 66.8469 82.1202 61.4398C78.9782 58.3848 74.6663 56.9115 70.3017 57.4064C66.6618 57.8152 63.0613 56.5419 60.4267 53.9072L56.041 49.5207C53.1249 46.6046 53.1249 41.8609 56.041 38.9448L60.4267 34.5582C63.0622 31.9245 66.6618 30.6474 70.3017 31.0591C74.6739 31.555 78.9782 30.0816 82.1202 27.0257C87.6805 21.6186 87.9936 12.5352 82.8181 6.77864C80.0973 3.7534 76.3695 2.02825 72.318 1.92198C68.2368 1.80135 64.4532 3.33314 61.5869 6.19946C58.3989 9.3884 56.8806 13.7903 57.4205 18.2784C57.8408 21.7708 56.5264 25.4212 53.9051 28.0415L49.5224 32.4252C46.6082 35.3413 41.8616 35.3432 38.9455 32.4252L34.5598 28.0396C31.9262 25.4068 30.65 21.8072 31.0598 18.1645C31.5528 13.7951 30.0823 9.48703 27.0264 6.34595C21.6202 0.786589 12.535 0.471594 6.78032 5.64897C3.75508 8.36881 2.02996 12.0977 1.92273 16.1492C1.81647 20.2017 3.33578 24.013 6.20114 26.8793C9.38818 30.0673 13.7881 31.5904 18.28 31.0457C21.761 30.6292 25.4219 31.9389 28.0441 34.5611L32.4268 38.9448C35.3429 41.8609 35.3429 46.6046 32.4268 49.5207L28.0413 53.9072C25.4085 56.5409 21.8165 57.8171 18.1661 57.4064C17.6108 57.3432 17.0575 57.3126 16.506 57.3126Z" fill="#0052C3"/>
</svg>
